<svg width="24" height="24" viewBox="0 0 24 24" fill="none" xmlns="http://www.w3.org/2000/svg">
<g clip-path="url(#clip0_833_1948)">
<path d="M21.4287 0.106934C22.7896 0.106934 23.8933 1.21001 23.8936 2.5708V21.4282C23.8936 22.7892 22.7897 23.8931 21.4287 23.8931H2.57129C1.21049 23.8928 0.107422 22.7891 0.107422 21.4282V2.5708C0.107648 1.21015 1.21063 0.10716 2.57129 0.106934H21.4287ZM2.57129 1.60693C2.03906 1.60716 1.60765 2.03857 1.60742 2.5708V21.4282C1.60742 21.9606 2.03892 22.3928 2.57129 22.3931H21.4287C21.9613 22.3931 22.3936 21.9608 22.3936 21.4282V2.5708C22.3933 2.03843 21.9611 1.60693 21.4287 1.60693H2.57129ZM11.3896 8.13623C11.6304 7.7992 12.0985 7.72075 12.4355 7.96143C12.7723 8.20213 12.8507 8.67037 12.6104 9.00732L8.32422 15.0073C8.19607 15.1865 7.99497 15.3007 7.77539 15.3188C7.58343 15.3346 7.39384 15.2759 7.24512 15.1567L7.18359 15.1021L4.6123 12.5308L4.56055 12.4741C4.32026 12.1797 4.33798 11.7449 4.6123 11.4702C4.88693 11.1956 5.32163 11.1781 5.61621 11.4185L5.67285 11.4702L7.61816 13.4155L11.3896 8.13623ZM18.9346 12.1108C19.3127 12.1493 19.6074 12.4687 19.6074 12.8569C19.6074 13.2452 19.3127 13.5645 18.9346 13.603L18.8574 13.6069H13.7148C13.3006 13.6069 12.9648 13.2711 12.9648 12.8569C12.9648 12.4427 13.3006 12.1069 13.7148 12.1069H18.8574L18.9346 12.1108Z" fill="url(#paint0_linear_833_1948)"/>
</g>
<defs>
<linearGradient id="paint0_linear_833_1948" x1="12.0005" y1="0.106934" x2="12.0005" y2="23.8931" gradientUnits="userSpaceOnUse">
<stop stop-color="#FCCDFF"/>
<stop offset="1" stop-color="#8752FA"/>
</linearGradient>
<clipPath id="clip0_833_1948">
<rect width="24" height="24" fill="white"/>
</clipPath>
</defs>
</svg>
