<svg width="24" height="26" viewBox="0 0 24 26" fill="none" xmlns="http://www.w3.org/2000/svg">
<path d="M12.5186 0.258597C14.543 0.334765 16.5139 0.929357 18.2422 1.98614C19.9708 3.04312 21.3994 4.52718 22.3897 6.29473C23.318 7.95168 23.8328 9.80637 23.8926 11.701L23.8985 12.0809C23.8974 13.9565 23.4493 15.8048 22.5928 17.4734C21.7957 19.0263 20.665 20.3816 19.2842 21.4441V23.1541C19.2842 23.8424 19.0101 24.5023 18.5235 24.9891C18.0368 25.4758 17.3768 25.7497 16.6885 25.7498H7.46001C6.77159 25.7498 6.11085 25.4758 5.62407 24.9891C5.1376 24.5023 4.8643 23.8423 4.8643 23.1541V21.4441C3.36469 20.2903 2.16131 18.793 1.35942 17.075C0.502515 15.2391 0.132342 13.2136 0.283249 11.1932C0.434194 9.17284 1.10165 7.22508 2.22173 5.53692C3.34189 3.84877 4.87686 2.47583 6.67973 1.55157C8.48273 0.627314 10.4939 0.182506 12.5186 0.258597ZM12.462 1.75664C10.6942 1.69021 8.93857 2.07953 7.3643 2.88653C5.79008 3.69353 4.44982 4.89199 3.47173 6.36602C2.49372 7.83999 1.91021 9.54049 1.77837 11.3045C1.64659 13.0685 1.97066 14.8373 2.7188 16.4402C3.46703 18.0433 4.61491 19.4278 6.0518 20.4598C6.2477 20.6006 6.36414 20.8269 6.3643 21.0682V23.1541C6.3643 23.4447 6.48015 23.723 6.68559 23.9285C6.89107 24.134 7.16944 24.2498 7.46001 24.2498H9.47661V21.3084C9.47669 20.8943 9.81244 20.5584 10.2266 20.5584C10.6408 20.5584 10.9765 20.8943 10.9766 21.3084V24.2498H13.17V21.3084C13.17 20.8943 13.5058 20.5584 13.92 20.5584C14.3341 20.5584 14.6699 20.8943 14.67 21.3084V24.2498H16.6885C16.979 24.2497 17.2575 24.1339 17.4629 23.9285C17.6683 23.7231 17.7842 23.4446 17.7842 23.1541V21.0682C17.7844 20.8268 17.9007 20.6006 18.0967 20.4598C19.427 19.5044 20.5109 18.2459 21.2588 16.7889C22.0067 15.3319 22.3975 13.7176 22.3985 12.0799L22.3926 11.7488C22.3405 10.0943 21.8918 8.47414 21.0811 7.02715C20.2164 5.48397 18.9691 4.18926 17.46 3.26641C15.9508 2.34354 14.2297 1.82311 12.462 1.75664ZM7.46001 11.3309C8.38381 11.3309 9.13278 12.0799 9.13286 13.0037C9.13285 13.9276 8.38386 14.6765 7.46001 14.6766C6.53613 14.6766 5.78716 13.9276 5.78716 13.0037C5.78723 12.0799 6.53617 11.3309 7.46001 11.3309ZM16.6866 11.3309C17.6104 11.3309 18.3593 12.0799 18.3594 13.0037C18.3594 13.9276 17.6104 14.6765 16.6866 14.6766C15.7627 14.6766 15.0137 13.9276 15.0137 13.0037C15.0138 12.0799 15.7627 11.3309 16.6866 11.3309ZM7.46001 12.8309C7.3646 12.8309 7.28723 12.9083 7.28716 13.0037C7.28716 13.0992 7.36456 13.1766 7.46001 13.1766C7.55543 13.1765 7.63285 13.0991 7.63286 13.0037C7.63278 12.9083 7.55539 12.8309 7.46001 12.8309ZM16.6866 12.8309C16.5912 12.8309 16.5138 12.9083 16.5137 13.0037C16.5137 13.0992 16.5911 13.1766 16.6866 13.1766C16.782 13.1765 16.8594 13.0991 16.8594 13.0037C16.8593 12.9083 16.7819 12.8309 16.6866 12.8309Z" fill="url(#paint0_linear_833_1993)"/>
<defs>
<linearGradient id="paint0_linear_833_1993" x1="12.0744" y1="0.250244" x2="12.0744" y2="25.7498" gradientUnits="userSpaceOnUse">
<stop stop-color="#FCCDFF"/>
<stop offset="1" stop-color="#8752FA"/>
</linearGradient>
</defs>
</svg>
