<svg width="24" height="24" viewBox="0 0 24 24" fill="none" xmlns="http://www.w3.org/2000/svg">
<path d="M19.2412 1.98935C19.5358 1.74908 19.9705 1.76652 20.2451 2.04111L23.6738 5.46982L23.7256 5.52646C23.9657 5.82103 23.9483 6.25582 23.6738 6.53037C23.3993 6.80491 22.9645 6.82227 22.6699 6.58213L22.6133 6.53037L19.7148 3.63193L16.918 6.42881L19.3877 8.89853L19.4395 8.95517C19.6798 9.24976 19.6623 9.68448 19.3877 9.95908C19.1131 10.2337 18.6784 10.2511 18.3838 10.0108L18.3271 9.95908L15.8574 7.48935L10.6621 12.6837C11.4332 13.6798 11.8935 14.9292 11.8936 16.2862C11.8933 19.5405 9.25437 22.1798 6 22.1798C2.74576 22.1796 0.107686 19.5404 0.107422 16.2862C0.107573 13.0319 2.74569 10.3938 6 10.3937C7.35662 10.3937 8.6054 10.8528 9.60156 11.6231L19.1846 2.04111L19.2412 1.98935ZM6 11.8937C3.57411 11.8938 1.60757 13.8603 1.60742 16.2862C1.60769 18.712 3.57418 20.6796 6 20.6798C8.42595 20.6798 10.3933 18.7121 10.3936 16.2862C10.3935 15.0877 9.91231 14.0016 9.13379 13.2091C9.12391 13.2002 9.114 13.1912 9.10449 13.1817C9.09466 13.1719 9.08535 13.1617 9.07617 13.1515C8.28349 12.3737 7.19811 11.8937 6 11.8937Z" fill="url(#paint0_linear_833_1983)"/>
<defs>
<linearGradient id="paint0_linear_833_1983" x1="12.0005" y1="1.82129" x2="12.0005" y2="22.1798" gradientUnits="userSpaceOnUse">
<stop stop-color="#FCCDFF"/>
<stop offset="1" stop-color="#8752FA"/>
</linearGradient>
</defs>
</svg>
