<svg width="202" height="35" viewBox="0 0 202 35" fill="none" xmlns="http://www.w3.org/2000/svg">
<path d="M157.214 28.6052L166.12 6.06079H170.228L179.167 28.6052H175.782L173.58 23.0184H162.603L160.434 28.6052H157.214ZM163.622 20.3565H172.528L169.801 13.2908C169.735 13.0936 169.636 12.8197 169.505 12.4692C169.373 12.1186 169.231 11.7352 169.078 11.319C168.924 10.8808 168.771 10.4426 168.617 10.0044C168.464 9.54433 168.322 9.12806 168.19 8.7556H167.993C167.84 9.19379 167.664 9.6977 167.467 10.2673C167.27 10.837 167.073 11.3957 166.876 11.9434C166.679 12.4692 166.514 12.9183 166.383 13.2908L163.622 20.3565Z" fill="white"/>
<path d="M135.93 28.6052V6.06079H147.794C149.328 6.06079 150.598 6.34561 151.606 6.91524C152.636 7.46297 153.403 8.24074 153.907 9.24856C154.41 10.2345 154.662 11.3737 154.662 12.6664C154.662 14.2219 154.312 15.5584 153.611 16.6757C152.91 17.7931 151.946 18.5928 150.719 19.0748L155.451 28.6052H152.033L147.63 19.6335H139.052V28.6052H135.93ZM139.052 16.9715H147.498C148.747 16.9715 149.722 16.5881 150.423 15.8213C151.146 15.0545 151.507 14.0028 151.507 12.6664C151.507 11.8338 151.354 11.1327 151.047 10.5631C150.741 9.99347 150.292 9.55529 149.7 9.24856C149.108 8.91992 148.374 8.7556 147.498 8.7556H139.052V16.9715Z" fill="white"/>
<path d="M121.525 28.6052V8.78847H113.802V6.06079H132.436V8.78847H124.647V28.6052H121.525Z" fill="white"/>
<path d="M91.8027 28.6052V6.06079H94.8262L105.77 20.9151C105.879 21.0466 106.022 21.2438 106.197 21.5067C106.372 21.7696 106.547 22.0325 106.723 22.2954C106.898 22.5364 107.04 22.7555 107.15 22.9527H107.281C107.281 22.6021 107.281 22.2626 107.281 21.9339C107.281 21.5834 107.281 21.2438 107.281 20.9151V6.06079H110.338V28.6052H107.479L96.4036 13.488C96.2503 13.247 96.0202 12.9074 95.7135 12.4692C95.4287 12.031 95.1877 11.6805 94.9905 11.4176H94.8262C94.8262 11.7681 94.8262 12.1186 94.8262 12.4692C94.8262 12.7978 94.8262 13.1374 94.8262 13.488V28.6052H91.8027Z" fill="white"/>
<path d="M69.5621 28.6053V6.06087H86.914V8.75569H72.6841V15.7228H85.468V18.4176H72.6841V25.9105H87.1112V28.6053H69.5621Z" fill="white"/>
<path d="M55.7313 28.9999C54.5044 28.9999 53.3213 28.8794 52.182 28.6384C51.0647 28.3974 50.0678 28.014 49.1915 27.4882C48.3151 26.9404 47.614 26.2393 47.0882 25.3849C46.5843 24.5304 46.3323 23.4788 46.3323 22.23C46.3323 22.1204 46.3323 22.0109 46.3323 21.9014C46.3542 21.7918 46.3652 21.6823 46.3652 21.5727H49.5201C49.5201 21.6384 49.5091 21.748 49.4872 21.9014C49.4872 22.0328 49.4872 22.1533 49.4872 22.2628C49.4872 23.1392 49.7501 23.8841 50.276 24.4976C50.8018 25.111 51.5248 25.5711 52.445 25.8778C53.387 26.1627 54.4496 26.3051 55.6327 26.3051C56.1585 26.3051 56.7063 26.2722 57.2759 26.2065C57.8674 26.1408 58.4261 26.0312 58.9519 25.8778C59.4997 25.7026 59.9817 25.4835 60.3979 25.2206C60.8361 24.9358 61.1757 24.5962 61.4167 24.2018C61.6796 23.7855 61.8111 23.2816 61.8111 22.6901C61.8111 21.9452 61.592 21.3317 61.1538 20.8497C60.7375 20.3458 60.1788 19.9405 59.4777 19.6338C58.7767 19.3051 57.977 19.0203 57.0787 18.7793C56.2023 18.5164 55.2931 18.2644 54.351 18.0234C53.4089 17.7824 52.4888 17.5086 51.5905 17.2019C50.7141 16.8732 49.9254 16.4789 49.2243 16.0188C48.5232 15.5368 47.9536 14.9452 47.5154 14.2441C47.0992 13.543 46.891 12.6886 46.891 11.6808C46.891 10.7387 47.0772 9.89517 47.4497 9.15027C47.8441 8.40536 48.4137 7.78095 49.1586 7.27704C49.9254 6.75122 50.8675 6.35686 51.9849 6.09395C53.1022 5.80913 54.3839 5.66672 55.8299 5.66672C57.013 5.66672 58.1084 5.79818 59.1162 6.06108C60.146 6.30208 61.0442 6.68549 61.8111 7.21131C62.5998 7.71522 63.2132 8.36154 63.6514 9.15027C64.0896 9.93899 64.3087 10.892 64.3087 12.0094V12.4038H61.2195V11.9108C61.2195 11.1659 60.9895 10.5305 60.5294 10.0047C60.0693 9.4789 59.4339 9.07358 58.6233 8.78876C57.8346 8.50395 56.9363 8.36154 55.9285 8.36154C54.6139 8.36154 53.5185 8.49299 52.6421 8.7559C51.7658 8.9969 51.1085 9.3584 50.6703 9.8404C50.2541 10.3005 50.0459 10.8263 50.0459 11.4179C50.0459 12.097 50.2541 12.6667 50.6703 13.1268C51.1085 13.5869 51.6781 13.9703 52.3792 14.277C53.0803 14.5618 53.88 14.8247 54.7783 15.0657C55.6765 15.3067 56.5858 15.5587 57.5059 15.8216C58.448 16.0626 59.3572 16.3474 60.2336 16.676C61.1319 16.9828 61.9316 17.3771 62.6326 17.8591C63.3556 18.3192 63.9253 18.9108 64.3415 19.6338C64.7578 20.3349 64.966 21.2003 64.966 22.23C64.966 23.8293 64.5716 25.1329 63.7829 26.1408C62.9941 27.1267 61.9096 27.8497 60.5294 28.3098C59.1491 28.7698 57.5498 28.9999 55.7313 28.9999Z" fill="white"/>
<path d="M24.2503 6.74563V15.9027C24.2503 16.4366 23.6054 16.7036 23.2275 16.3256L18.3561 11.4546C17.9061 11.0047 17.6542 10.3929 17.6542 9.757V0.599898C17.6542 0.0660084 18.2991 -0.200936 18.677 0.176985L22.0546 3.55429L22.3546 3.85422L23.5514 5.05098C24.0014 5.50088 24.2533 6.11276 24.2533 6.74862L24.2503 6.74563Z" fill="white"/>
<path d="M31.1493 13.6439V16.7513C31.1493 17.0812 30.8793 17.3512 30.5494 17.3512H25.75C25.087 17.3512 24.5501 16.8143 24.5501 16.1514V7.50122C24.5501 6.96733 25.195 6.70038 25.573 7.0783L28.9506 10.4556L29.2505 10.7555L30.4474 11.9523C30.8973 12.4022 31.1493 13.0141 31.1493 13.6499V13.6439Z" fill="white"/>
<path d="M34.4015 17.6514C34.9354 17.6514 35.2024 18.2962 34.8244 18.6742L31.4468 22.0515L31.1469 22.3514L29.95 23.5482C29.5001 23.9981 28.8882 24.25 28.2522 24.25H19.0944C18.5605 24.25 18.2935 23.6052 18.6714 23.2272L23.5428 18.3562C23.9928 17.9063 24.6047 17.6544 25.2406 17.6544H34.3985L34.4015 17.6514Z" fill="white"/>
<path d="M27.5026 24.5497C28.0366 24.5497 28.3035 25.1946 27.9256 25.5725L24.548 28.9498L24.248 29.2498L23.0512 30.4465C22.6013 30.8964 21.9893 31.1484 21.3534 31.1484H18.2458C17.9158 31.1484 17.6459 30.8784 17.6459 30.5485V25.7495C17.6459 25.0866 18.1828 24.5497 18.8457 24.5497H27.4966H27.5026Z" fill="white"/>
<path d="M17.3499 25.2428V34.3999C17.3499 34.9337 16.705 35.2007 16.327 34.8228L11.4556 29.9518C11.0057 29.5019 10.7537 28.89 10.7537 28.2541V19.097C10.7537 18.5631 11.3986 18.2962 11.7766 18.6741L16.648 23.5451C17.0979 23.995 17.3499 24.6069 17.3499 25.2428Z" fill="white"/>
<path d="M10.4527 18.8513V27.5015C10.4527 28.0354 9.80777 28.3024 9.42982 27.9244L6.05524 24.5501L4.55543 23.0504C4.10548 22.6005 3.85352 21.9887 3.85352 21.3528V18.2484C3.85352 17.9185 4.12348 17.6486 4.45344 17.6486H9.25284C9.91576 17.6486 10.4527 18.1854 10.4527 18.8483V18.8513Z" fill="white"/>
<path d="M16.3254 11.7755L11.4541 16.6465C11.0041 17.0964 10.3922 17.3484 9.75627 17.3484H0.601412C0.0674787 17.3484 -0.199488 16.7035 0.178465 16.3256L3.55304 12.9513L3.85301 12.6514L5.05286 11.4516C5.5028 11.0017 6.11472 10.7498 6.75064 10.7498H15.9055C16.4394 10.7498 16.7064 11.3946 16.3284 11.7725L16.3254 11.7755Z" fill="white"/>
<path d="M17.3534 4.45409V9.2531C17.3534 9.91596 16.8165 10.4528 16.1536 10.4528H7.50565C6.97171 10.4528 6.70475 9.80798 7.0827 9.43006L10.4573 6.05276L11.9541 4.55607C12.404 4.10616 13.016 3.85422 13.6519 3.85422H16.7595C17.0894 3.85422 17.3594 4.12416 17.3594 4.45409H17.3534Z" fill="white"/>
<path d="M196.387 11.4014V5.76524H197.825L198.918 9.18306C198.951 9.28165 198.983 9.39393 199.016 9.51991C199.049 9.64588 199.079 9.76638 199.107 9.88141C199.14 9.99643 199.164 10.0978 199.181 10.1854H199.246C199.257 10.1032 199.276 10.0046 199.304 9.88962C199.331 9.7746 199.359 9.6541 199.386 9.52812C199.419 9.40215 199.452 9.28438 199.485 9.17484L200.586 5.76524H201.999V11.4014H201.087V8.31217C201.087 8.10403 201.089 7.88768 201.095 7.66311C201.1 7.43854 201.106 7.23862 201.111 7.06335C201.117 6.88808 201.12 6.77579 201.12 6.7265H201.054C201.043 6.78675 201.015 6.89082 200.972 7.0387C200.933 7.18111 200.892 7.33448 200.848 7.49879C200.805 7.66311 200.764 7.80552 200.725 7.92602L199.583 11.4014H198.77L197.628 7.93424C197.595 7.83017 197.559 7.70693 197.521 7.56452C197.483 7.42211 197.444 7.27696 197.406 7.12908C197.368 6.98119 197.335 6.847 197.307 6.7265H197.242C197.247 6.85795 197.25 7.01953 197.25 7.21124C197.255 7.40294 197.261 7.59739 197.266 7.79457C197.272 7.98627 197.275 8.15881 197.275 8.31217V11.4014H196.387Z" fill="white"/>
<path d="M190.653 11.4014V5.76524H195.024V6.55396H191.573V8.1232H194.662V8.91193H191.573V10.6126H195.073V11.4014H190.653Z" fill="white"/>
<path d="M186.804 11.4014V6.55396H184.939V5.76524H189.606V6.55396H187.724V11.4014H186.804Z" fill="white"/>
<path d="M181.876 11.5C181.301 11.5 180.811 11.3987 180.406 11.196C180.006 10.9879 179.699 10.6675 179.485 10.2348C179.272 9.80206 179.165 9.25159 179.165 8.58337C179.165 7.59746 179.403 6.86624 179.88 6.38972C180.362 5.90772 181.03 5.66672 181.884 5.66672C182.355 5.66672 182.777 5.74614 183.15 5.90498C183.528 6.06382 183.823 6.30208 184.037 6.61977C184.256 6.93197 184.366 7.33181 184.366 7.81929H183.429C183.429 7.51804 183.366 7.26608 183.24 7.06343C183.114 6.86077 182.933 6.7074 182.698 6.60333C182.468 6.49927 182.199 6.44723 181.893 6.44723C181.509 6.44723 181.183 6.52391 180.915 6.67728C180.652 6.82516 180.452 7.04973 180.315 7.35098C180.184 7.65223 180.118 8.03564 180.118 8.50121V8.68196C180.118 9.14753 180.184 9.53094 180.315 9.83219C180.452 10.1334 180.652 10.358 180.915 10.5059C181.178 10.6483 181.504 10.7195 181.893 10.7195C182.21 10.7195 182.487 10.6702 182.722 10.5716C182.958 10.4675 183.139 10.3142 183.265 10.1115C183.396 9.90887 183.462 9.65691 183.462 9.35566H184.366C184.366 9.84314 184.256 10.2457 184.037 10.5634C183.823 10.8811 183.528 11.1166 183.15 11.27C182.777 11.4233 182.353 11.5 181.876 11.5Z" fill="white"/>
</svg>
