<svg width="1440" height="800" viewBox="0 0 1440 800" fill="none" xmlns="http://www.w3.org/2000/svg">
<path d="M1436.93 38.2241C1437.82 39.1124 1439.04 39.198 1440 38.7329V161.654C1438.94 158.977 1437.34 156.513 1435.27 154.431L1387.83 106.721C1386.14 105.034 1383.25 106.239 1383.25 108.624V211.143C1383.25 216.795 1385.5 222.233 1389.49 226.251L1436.93 273.961C1437.82 274.85 1439.04 274.935 1440 274.47V397.393C1438.94 394.716 1437.34 392.252 1435.27 390.17L1387.83 342.46C1386.14 340.773 1383.25 341.979 1383.25 344.363V446.882C1383.25 452.534 1385.5 457.973 1389.49 461.991L1436.93 509.701C1437.82 510.589 1439.04 510.674 1440 510.209V633.13C1438.94 630.454 1437.34 627.991 1435.27 625.909L1387.83 578.199C1386.14 576.511 1383.25 577.717 1383.25 580.101V682.62C1383.25 688.272 1385.5 693.711 1389.49 697.729L1436.93 745.439C1437.82 746.327 1439.04 746.413 1440 745.948V800H1391.81L1436.93 754.6C1438.62 752.912 1437.42 750.046 1435.03 750.046H1333.24C1327.5 750.046 1322.01 752.35 1317.99 756.421L1274.92 800H1263.75V697.97C1263.75 695.586 1260.86 694.381 1259.17 696.068L1211.73 743.779C1207.73 747.797 1205.48 753.235 1205.48 758.887V800H1200.42V758.887C1200.42 753.235 1198.17 747.797 1194.17 743.779L1146.73 696.068C1145.04 694.38 1142.15 695.586 1142.15 697.97V800H1130.95L1087.88 756.421C1083.86 752.35 1078.37 750.046 1072.64 750.046H970.843C968.459 750.046 967.253 752.912 968.94 754.6L1014.06 800H909.619L954.74 754.6C956.428 752.912 955.222 750.046 952.838 750.046H851.042C845.309 750.046 839.817 752.35 835.799 756.421L792.731 800H781.55V697.97C781.55 695.586 778.656 694.38 776.969 696.068L729.526 743.779C725.535 747.797 723.285 753.235 723.285 758.887V800H718.227V758.887C718.227 753.235 715.977 747.797 711.985 743.779L664.543 696.068C662.855 694.38 659.962 695.586 659.962 697.97V800H648.755L605.688 756.421C601.669 752.35 596.178 750.046 590.445 750.046H488.648C486.265 750.047 485.06 752.913 486.747 754.6L531.868 800H427.431L472.552 754.6C474.239 752.912 473.034 750.046 470.649 750.046H368.854C363.121 750.046 357.629 752.35 353.61 756.421L310.543 800H299.367V697.97C299.367 695.586 296.474 694.381 294.786 696.068L247.344 743.779C243.352 747.797 241.102 753.235 241.102 758.887V800H236.033V758.887C236.033 753.235 233.783 747.797 229.792 743.779L182.35 696.068C180.662 694.38 177.769 695.586 177.769 697.97V800H166.562L123.494 756.421C119.476 752.35 113.984 750.047 108.252 750.046H6.45508C4.0711 750.047 2.86611 752.912 4.55371 754.6L49.6748 800H0V743.537C0.0003086 745.92 2.89344 747.126 4.58105 745.439L52.0234 697.729C56.0148 693.711 58.2645 688.272 58.2646 682.62V580.101C58.2646 577.717 55.3723 576.511 53.6846 578.199L6.24219 625.909C2.25093 629.927 0.000123555 635.365 0 641.017V507.799C0.000510809 510.183 2.8935 511.388 4.58105 509.701L52.0234 461.991C56.0147 457.973 58.2645 452.534 58.2646 446.882V344.363C58.2646 341.979 55.3723 340.773 53.6846 342.46L6.24219 390.17C2.25082 394.189 0 399.628 0 405.28V272.06C0.000498739 274.444 2.8935 275.649 4.58105 273.961L52.0234 226.251C56.0147 222.233 58.2645 216.795 58.2646 211.143V108.624C58.2646 106.24 55.3723 105.034 53.6846 106.721L6.24219 154.431C2.25082 158.449 0 163.888 0 169.541V36.3218C0.000359024 38.7055 2.89345 39.9113 4.58105 38.2241L42.5908 -0.000473022H177.769V93.2739C177.769 98.926 180.019 104.364 184.01 108.382L231.452 156.092C233.14 157.78 236.033 156.575 236.033 154.191V51.6714C236.033 46.0193 233.783 40.5812 229.792 36.563L193.435 -0.000473022H283.701L247.344 36.563C243.352 40.5812 241.102 46.0192 241.102 51.6714V154.191C241.102 156.575 243.995 157.78 245.683 156.092L293.125 108.382C297.116 104.364 299.367 98.9261 299.367 93.2739V-0.000473022H434.534L472.544 38.2241C474.232 39.9112 477.125 38.7055 477.125 36.3218V-0.000473022H482.188V36.3218C482.189 38.7056 485.082 39.9114 486.77 38.2241L524.779 -0.000473022H659.962V93.2739C659.962 98.926 662.212 104.364 666.203 108.382L713.646 156.092C715.333 157.78 718.226 156.575 718.227 154.191V51.6714C718.227 46.0193 715.977 40.5812 711.985 36.563L675.628 -0.000473022H765.884L729.526 36.563C725.535 40.5812 723.285 46.0193 723.285 51.6714V154.191C723.286 156.575 726.179 157.78 727.866 156.092L775.309 108.382C779.3 104.364 781.55 98.926 781.55 93.2739V-0.000473022H916.733L954.742 38.2241C956.43 39.9114 959.323 38.7056 959.323 36.3218V-0.000473022H964.387V36.3218C964.387 38.7055 967.28 39.9111 968.968 38.2241L1006.98 -0.000473022H1142.15V93.2739C1142.15 98.926 1144.4 104.364 1148.39 108.382L1195.83 156.092C1197.52 157.78 1200.41 156.575 1200.42 154.191V51.6714C1200.42 46.0193 1198.16 40.5812 1194.17 36.563L1157.82 -0.000473022H1248.08L1211.73 36.563C1207.73 40.5812 1205.48 46.0192 1205.48 51.6714V154.191C1205.48 156.575 1208.38 157.78 1210.06 156.092L1257.51 108.382C1261.5 104.364 1263.75 98.9261 1263.75 93.2739V-0.000473022H1398.92L1436.93 38.2241ZM423.44 578.199C421.753 576.511 418.86 577.717 418.86 580.101V682.62C418.86 688.272 421.11 693.711 425.102 697.729L472.544 745.439C474.232 747.126 477.125 745.92 477.125 743.537V641.017C477.125 635.365 474.874 629.927 470.883 625.909L423.44 578.199ZM540.453 580.101C540.453 577.717 537.56 576.511 535.872 578.199L488.43 625.909C484.439 629.927 482.189 635.365 482.188 641.017V743.537C482.189 745.92 485.082 747.126 486.77 745.439L534.212 697.729C538.203 693.711 540.453 688.272 540.453 682.62V580.101ZM905.64 578.199C903.952 576.511 901.059 577.717 901.059 580.101V682.62C901.059 688.272 903.309 693.711 907.301 697.729L954.742 745.439C956.43 747.126 959.323 745.92 959.323 743.537V641.017C959.323 635.365 957.073 629.927 953.082 625.909L905.64 578.199ZM1022.65 580.101C1022.65 577.717 1019.76 576.511 1018.07 578.199L970.629 625.909C966.638 629.927 964.387 635.365 964.387 641.017V743.537C964.387 745.92 967.28 747.126 968.968 745.439L1016.41 697.729C1020.4 693.711 1022.65 688.272 1022.65 682.62V580.101ZM127.752 632.177C122.019 632.177 116.527 634.481 112.509 638.552L65.0664 686.558C63.3794 688.246 64.5848 691.112 66.9688 691.112H168.497C174.203 691.112 179.667 688.834 183.686 684.79L231.449 636.731C233.137 635.043 231.932 632.177 229.548 632.177H127.752ZM247.552 632.177C245.168 632.178 243.963 635.043 245.65 636.731L293.414 684.79C297.432 688.834 302.898 691.112 308.604 691.112H410.132C412.516 691.112 413.72 688.246 412.033 686.558L364.591 638.552C360.573 634.481 355.081 632.177 349.349 632.177H247.552ZM609.95 632.177C604.217 632.177 598.725 634.48 594.707 638.552L547.265 686.558C545.578 688.246 546.783 691.112 549.167 691.112H650.695C656.401 691.112 661.867 688.834 665.885 684.79L713.648 636.731C715.336 635.043 714.13 632.177 711.746 632.177H609.95ZM729.746 632.177C727.362 632.177 726.156 635.043 727.844 636.731L775.607 684.79C779.626 688.834 785.091 691.112 790.797 691.112H892.325C894.709 691.112 895.914 688.246 894.227 686.558L846.784 638.552C842.766 634.481 837.274 632.177 831.542 632.177H729.746ZM1092.14 632.177C1086.41 632.177 1080.91 634.48 1076.9 638.552L1029.45 686.558C1027.77 688.246 1028.97 691.112 1031.36 691.112H1132.88C1138.59 691.112 1144.06 688.834 1148.07 684.79L1195.84 636.731C1197.52 635.043 1196.32 632.177 1193.93 632.177H1092.14ZM1211.94 632.177C1209.56 632.177 1208.35 635.043 1210.04 636.731L1257.8 684.79C1261.82 688.834 1267.28 691.112 1272.99 691.112H1374.52C1376.9 691.112 1378.11 688.246 1376.42 686.558L1328.98 638.552C1324.96 634.481 1319.47 632.177 1313.74 632.177H1211.94ZM182.35 460.33C180.662 458.642 177.769 459.848 177.769 462.232V564.751C177.769 570.404 180.019 575.842 184.01 579.86L231.452 627.57C233.14 629.257 236.033 628.052 236.033 625.668V523.149C236.033 517.497 233.783 512.058 229.792 508.04L182.35 460.33ZM299.367 462.232C299.367 459.848 296.474 458.642 294.786 460.33L247.344 508.04C243.352 512.058 241.102 517.497 241.102 523.149V625.668C241.102 628.052 243.995 629.257 245.683 627.57L293.125 579.86C297.116 575.842 299.367 570.404 299.367 564.751V462.232ZM664.543 460.33C662.855 458.642 659.962 459.848 659.962 462.232V564.751C659.962 570.404 662.212 575.842 666.203 579.86L713.646 627.57C715.333 629.257 718.226 628.052 718.227 625.668V523.149C718.227 517.497 715.977 512.058 711.985 508.04L664.543 460.33ZM781.55 462.232C781.55 459.848 778.656 458.642 776.969 460.33L729.526 508.04C725.535 512.058 723.285 517.497 723.285 523.149V625.668C723.286 628.052 726.179 629.257 727.866 627.57L775.309 579.86C779.3 575.842 781.55 570.404 781.55 564.751V462.232ZM1146.73 460.33C1145.04 458.642 1142.15 459.848 1142.15 462.232V564.751C1142.15 570.404 1144.4 575.842 1148.39 579.86L1195.83 627.57C1197.52 629.257 1200.41 628.052 1200.42 625.668V523.149C1200.42 517.497 1198.17 512.058 1194.17 508.04L1146.73 460.33ZM1263.75 462.232C1263.75 459.848 1260.86 458.642 1259.17 460.33L1211.73 508.04C1207.73 512.058 1205.48 517.497 1205.48 523.149V625.668C1205.48 628.052 1208.38 629.257 1210.06 627.57L1257.51 579.86C1261.5 575.842 1263.75 570.404 1263.75 564.751V462.232ZM6.45508 514.308C4.0711 514.308 2.86611 517.174 4.55371 518.862L52.3174 566.92C56.3355 570.965 61.8002 573.243 67.5059 573.243H169.034C171.418 573.243 172.624 570.377 170.937 568.689L123.494 520.684C119.476 516.612 113.985 514.308 108.252 514.308H6.45508ZM368.854 514.308C363.121 514.308 357.629 516.612 353.61 520.684L306.168 568.689C304.481 570.377 305.686 573.243 308.07 573.243H409.599C415.304 573.243 420.77 570.965 424.788 566.92L472.552 518.862C474.239 517.174 473.033 514.308 470.649 514.308H368.854ZM488.648 514.308C486.265 514.308 485.06 517.174 486.747 518.862L534.511 566.92C538.529 570.965 543.994 573.243 549.7 573.243H651.229C653.612 573.242 654.817 570.377 653.13 568.689L605.688 520.684C601.669 516.612 596.178 514.308 590.445 514.308H488.648ZM851.042 514.308C845.309 514.308 839.817 516.612 835.799 520.684L788.356 568.689C786.669 570.377 787.875 573.243 790.259 573.243H891.787C897.493 573.243 902.958 570.965 906.977 566.92L954.74 518.862C956.427 517.174 955.222 514.308 952.838 514.308H851.042ZM970.843 514.308C968.459 514.308 967.253 517.174 968.94 518.862L1016.7 566.92C1020.72 570.965 1026.19 573.243 1031.89 573.243H1133.42C1135.81 573.243 1137.01 570.377 1135.32 568.689L1087.88 520.684C1083.86 516.612 1078.37 514.308 1072.64 514.308H970.843ZM1333.24 514.308C1327.5 514.308 1322.01 516.612 1317.99 520.684L1270.55 568.689C1268.86 570.377 1270.07 573.243 1272.45 573.243H1373.98C1379.69 573.243 1385.15 570.965 1389.17 566.92L1436.93 518.862C1438.62 517.174 1437.42 514.308 1435.03 514.308H1333.24ZM423.44 342.46C421.753 340.773 418.86 341.979 418.86 344.363V446.882C418.861 452.534 421.11 457.973 425.102 461.991L472.544 509.701C474.232 511.388 477.124 510.183 477.125 507.799V405.28C477.125 399.628 474.874 394.189 470.883 390.17L423.44 342.46ZM540.453 344.363C540.453 341.979 537.56 340.773 535.872 342.46L488.43 390.17C484.438 394.189 482.188 399.628 482.188 405.28V507.799C482.189 510.183 485.082 511.388 486.77 509.701L534.212 461.991C538.203 457.973 540.453 452.534 540.453 446.882V344.363ZM905.64 342.46C903.952 340.773 901.059 341.979 901.059 344.363V446.882C901.059 452.535 903.309 457.973 907.301 461.991L954.742 509.701C956.43 511.388 959.323 510.183 959.323 507.799V405.28C959.323 399.628 957.073 394.189 953.082 390.17L905.64 342.46ZM1022.65 344.363C1022.65 341.979 1019.76 340.773 1018.07 342.46L970.629 390.17C966.638 394.189 964.387 399.628 964.387 405.28V507.799C964.387 510.183 967.28 511.388 968.968 509.701L1016.41 461.991C1020.4 457.973 1022.65 452.535 1022.65 446.882V344.363ZM127.752 396.438C122.019 396.438 116.527 398.742 112.509 402.814L65.0664 450.819C63.379 452.507 64.5847 455.374 66.9688 455.374H168.497C174.203 455.373 179.667 453.096 183.686 449.051L231.449 400.993C233.137 399.305 231.932 396.438 229.548 396.438H127.752ZM247.552 396.438C245.168 396.438 243.963 399.305 245.65 400.993L293.414 449.051C297.432 453.096 302.898 455.374 308.604 455.374H410.132C412.516 455.373 413.72 452.506 412.033 450.819L364.591 402.814C360.573 398.742 355.081 396.438 349.349 396.438H247.552ZM609.95 396.438C604.217 396.438 598.725 398.742 594.707 402.814L547.265 450.819C545.577 452.507 546.783 455.374 549.167 455.374H650.695C656.401 455.374 661.867 453.096 665.885 449.051L713.648 400.993C715.336 399.305 714.13 396.438 711.746 396.438H609.95ZM729.746 396.438C727.362 396.438 726.156 399.305 727.844 400.993L775.607 449.051C779.626 453.096 785.091 455.374 790.797 455.374H892.325C894.709 455.373 895.914 452.507 894.227 450.819L846.784 402.814C842.766 398.742 837.275 396.438 831.542 396.438H729.746ZM1092.14 396.438C1086.41 396.438 1080.91 398.742 1076.9 402.814L1029.45 450.819C1027.77 452.507 1028.97 455.374 1031.36 455.374H1132.88C1138.59 455.374 1144.06 453.096 1148.07 449.051L1195.84 400.993C1197.52 399.305 1196.32 396.438 1193.93 396.438H1092.14ZM1211.94 396.438C1209.56 396.438 1208.35 399.305 1210.04 400.993L1257.8 449.051C1261.82 453.096 1267.28 455.374 1272.99 455.374H1374.52C1376.9 455.373 1378.11 452.507 1376.42 450.819L1328.98 402.814C1324.96 398.742 1319.47 396.438 1313.74 396.438H1211.94ZM182.35 224.591C180.662 222.904 177.769 224.109 177.769 226.493V329.012C177.769 334.664 180.018 340.103 184.01 344.122L231.452 391.832C233.14 393.519 236.033 392.313 236.033 389.929V287.41C236.033 281.758 233.783 276.319 229.792 272.301L182.35 224.591ZM299.367 226.493C299.367 224.109 296.474 222.904 294.786 224.591L247.344 272.301C243.352 276.32 241.102 281.757 241.102 287.41V389.929C241.102 392.313 243.995 393.519 245.683 391.832L293.125 344.122C297.116 340.103 299.367 334.664 299.367 329.012V226.493ZM664.543 224.591C662.855 222.904 659.962 224.109 659.962 226.493V329.012C659.962 334.664 662.212 340.103 666.203 344.122L713.646 391.832C715.333 393.519 718.226 392.313 718.227 389.929V287.41C718.227 281.758 715.977 276.319 711.985 272.301L664.543 224.591ZM781.55 226.493C781.55 224.109 778.656 222.904 776.969 224.591L729.526 272.301C725.535 276.319 723.285 281.758 723.285 287.41V389.929C723.285 392.313 726.179 393.519 727.866 391.832L775.309 344.122C779.3 340.103 781.55 334.664 781.55 329.012V226.493ZM1146.73 224.591C1145.04 222.904 1142.15 224.109 1142.15 226.493V329.012C1142.15 334.664 1144.4 340.103 1148.39 344.122L1195.83 391.832C1197.52 393.519 1200.41 392.313 1200.42 389.929V287.41C1200.42 281.758 1198.17 276.319 1194.17 272.301L1146.73 224.591ZM1263.75 226.493C1263.75 224.109 1260.86 222.904 1259.17 224.591L1211.73 272.301C1207.73 276.32 1205.48 281.757 1205.48 287.41V389.929C1205.48 392.313 1208.38 393.519 1210.06 391.832L1257.51 344.122C1261.5 340.103 1263.75 334.664 1263.75 329.012V226.493ZM6.45508 278.57C4.0711 278.57 2.86611 281.436 4.55371 283.124L52.3174 331.182C56.3355 335.227 61.8003 337.504 67.5059 337.504H169.034C171.418 337.504 172.624 334.637 170.937 332.95L123.494 284.945C119.476 280.873 113.984 278.57 108.252 278.57H6.45508ZM368.854 278.57C363.121 278.57 357.629 280.873 353.61 284.945L306.168 332.95C304.481 334.637 305.686 337.504 308.07 337.504H409.599C415.304 337.504 420.77 335.227 424.788 331.182L472.552 283.124C474.239 281.436 473.034 278.57 470.649 278.57H368.854ZM488.648 278.57C486.265 278.57 485.06 281.436 486.747 283.124L534.511 331.182C538.529 335.227 543.994 337.504 549.7 337.504H651.229C653.612 337.504 654.817 334.637 653.13 332.95L605.688 284.945C601.669 280.873 596.178 278.57 590.445 278.57H488.648ZM851.042 278.57C845.309 278.57 839.817 280.873 835.799 284.945L788.356 332.95C786.669 334.637 787.875 337.504 790.259 337.504H891.787C897.493 337.504 902.958 335.227 906.977 331.182L954.74 283.124C956.428 281.436 955.222 278.57 952.838 278.57H851.042ZM970.843 278.57C968.459 278.57 967.253 281.436 968.94 283.124L1016.7 331.182C1020.72 335.227 1026.19 337.504 1031.89 337.504H1133.42C1135.81 337.504 1137.01 334.637 1135.32 332.95L1087.88 284.945C1083.86 280.873 1078.37 278.57 1072.64 278.57H970.843ZM1333.24 278.57C1327.5 278.57 1322.01 280.873 1317.99 284.945L1270.55 332.95C1268.86 334.637 1270.07 337.504 1272.45 337.504H1373.98C1379.69 337.504 1385.15 335.227 1389.17 331.182L1436.93 283.124C1438.62 281.436 1437.42 278.57 1435.03 278.57H1333.24ZM423.44 106.721C421.753 105.034 418.86 106.239 418.86 108.624V211.143C418.861 216.795 421.11 222.233 425.102 226.251L472.544 273.961C474.232 275.649 477.125 274.444 477.125 272.06V169.541C477.125 163.888 474.874 158.449 470.883 154.431L423.44 106.721ZM540.453 108.624C540.453 106.239 537.56 105.034 535.872 106.721L488.43 154.431C484.438 158.449 482.188 163.888 482.188 169.541V272.06C482.189 274.444 485.082 275.649 486.77 273.961L534.212 226.251C538.203 222.233 540.453 216.795 540.453 211.143V108.624ZM905.64 106.721C903.952 105.034 901.059 106.239 901.059 108.624V211.143C901.059 216.795 903.309 222.233 907.301 226.251L954.742 273.961C956.43 275.649 959.323 274.444 959.323 272.06V169.541C959.323 163.888 957.073 158.449 953.082 154.431L905.64 106.721ZM1022.65 108.624C1022.65 106.239 1019.76 105.034 1018.07 106.721L970.629 154.431C966.638 158.449 964.387 163.888 964.387 169.541V272.06C964.387 274.444 967.28 275.649 968.968 273.961L1016.41 226.251C1020.4 222.233 1022.65 216.795 1022.65 211.143V108.624ZM127.752 160.7C122.019 160.7 116.527 163.004 112.509 167.076L65.0664 215.081C63.3793 216.768 64.5847 219.634 66.9688 219.634H168.497C174.203 219.634 179.667 217.357 183.686 213.312L231.449 165.253C233.137 163.566 231.932 160.7 229.548 160.7H127.752ZM247.552 160.7C245.168 160.7 243.963 163.566 245.65 165.253L293.414 213.312C297.432 217.357 302.898 219.634 308.604 219.634H410.132C412.516 219.634 413.72 216.768 412.033 215.081L364.591 167.076C360.573 163.004 355.081 160.7 349.349 160.7H247.552ZM609.95 160.7C604.217 160.7 598.725 163.004 594.707 167.076L547.265 215.081C545.578 216.768 546.783 219.634 549.167 219.634H650.695C656.401 219.634 661.867 217.357 665.885 213.312L713.648 165.253C715.336 163.566 714.13 160.7 711.746 160.7H609.95ZM729.746 160.7C727.362 160.7 726.156 163.566 727.844 165.253L775.607 213.312C779.626 217.357 785.091 219.634 790.797 219.634H892.325C894.709 219.634 895.914 216.768 894.227 215.081L846.784 167.076C842.766 163.004 837.275 160.7 831.542 160.7H729.746ZM1092.14 160.7C1086.41 160.7 1080.91 163.004 1076.9 167.076L1029.45 215.081C1027.77 216.768 1028.97 219.634 1031.36 219.634H1132.88C1138.59 219.634 1144.06 217.357 1148.07 213.312L1195.84 165.253C1197.52 163.566 1196.32 160.7 1193.93 160.7H1092.14ZM1211.94 160.7C1209.56 160.7 1208.35 163.566 1210.04 165.253L1257.8 213.312C1261.82 217.357 1267.28 219.634 1272.99 219.634H1374.52C1376.9 219.634 1378.11 216.768 1376.42 215.081L1328.98 167.076C1324.96 163.004 1319.47 160.7 1313.74 160.7H1211.94ZM6.45508 42.8306C4.07113 42.8308 2.8662 45.6967 4.55371 47.3843L52.3174 95.4429C56.3355 99.4877 61.8002 101.765 67.5059 101.765H169.034C171.418 101.765 172.624 98.8991 170.937 97.2114L123.494 49.2066C119.476 45.1348 113.985 42.8307 108.252 42.8306H6.45508ZM368.854 42.8306C363.121 42.8306 357.629 45.1347 353.61 49.2066L306.168 97.2114C304.481 98.8992 305.686 101.765 308.07 101.765H409.599C415.304 101.765 420.77 99.4878 424.788 95.4429L472.552 47.3843C474.239 45.6966 473.033 42.8306 470.649 42.8306H368.854ZM488.648 42.8306C486.265 42.8309 485.06 45.6967 486.747 47.3843L534.511 95.4429C538.529 99.4878 543.994 101.765 549.7 101.765H651.229C653.612 101.765 654.817 98.8991 653.13 97.2114L605.688 49.2066C601.669 45.1348 596.178 42.8306 590.445 42.8306H488.648ZM851.042 42.8306C845.309 42.8306 839.817 45.1347 835.799 49.2066L788.356 97.2114C786.669 98.8992 787.875 101.765 790.259 101.765H891.787C897.493 101.765 902.958 99.4878 906.977 95.4429L954.74 47.3843C956.427 45.6966 955.222 42.8306 952.838 42.8306H851.042ZM970.843 42.8306C968.459 42.8306 967.253 45.6966 968.94 47.3843L1016.7 95.4429C1020.72 99.4878 1026.19 101.765 1031.89 101.765H1133.42C1135.81 101.765 1137.01 98.8991 1135.32 97.2114L1087.88 49.2066C1083.86 45.1348 1078.37 42.8306 1072.64 42.8306H970.843ZM1333.24 42.8306C1327.5 42.8306 1322.01 45.1347 1317.99 49.2066L1270.55 97.2114C1268.86 98.8992 1270.07 101.765 1272.45 101.765H1373.98C1379.69 101.765 1385.15 99.4878 1389.17 95.4429L1436.93 47.3843C1438.62 45.6966 1437.42 42.8306 1435.03 42.8306H1333.24Z" fill="black"/>
</svg>
