<svg width="24" height="24" viewBox="0 0 24 24" fill="none" xmlns="http://www.w3.org/2000/svg">
<g clip-path="url(#clip0_833_1958)">
<path d="M8.98305 12.2531C9.19222 12.0987 9.4703 12.0619 9.71547 12.1633C9.99562 12.2793 10.1783 12.5534 10.1784 12.8566V23.1428C10.1781 23.5567 9.84237 23.8927 9.42836 23.8928C9.01445 23.8926 8.67859 23.5567 8.67836 23.1428V14.6672L6.52992 16.8156C6.23704 17.1084 5.76224 17.1084 5.46938 16.8156C5.17683 16.5227 5.1767 16.0479 5.46938 15.7551L8.89809 12.3264L8.98305 12.2531ZM14.5719 12.1066C14.986 12.1066 15.3218 12.4425 15.3219 12.8566V21.3322L17.4704 19.1838C17.7631 18.891 18.238 18.8912 18.5309 19.1838C18.8236 19.4767 18.8237 19.9515 18.5309 20.2443L15.1022 23.673C14.8877 23.8873 14.5649 23.9512 14.2848 23.8352C14.005 23.719 13.8221 23.4458 13.8219 23.1428V12.8566C13.8221 12.4427 14.158 12.1068 14.5719 12.1066ZM7.46645 0.106637C8.59287 0.0696402 9.71399 0.283561 10.7477 0.732613C11.7814 1.18174 12.7023 1.85569 13.444 2.70429C13.9381 3.26975 14.3422 3.90523 14.6491 4.58613C15.0251 4.32587 15.4306 4.10787 15.859 3.94062C16.6435 3.63443 17.485 3.49984 18.3258 3.54609C19.1668 3.59243 19.9888 3.81961 20.735 4.21015C21.4808 4.60065 22.1348 5.14644 22.652 5.81074C23.1693 6.47541 23.5386 7.24442 23.734 8.06367C23.9293 8.88276 23.9463 9.73432 23.7848 10.5607C23.6232 11.3874 23.2861 12.1702 22.7965 12.8557C22.307 13.541 21.6764 14.1134 20.9469 14.5344C20.5882 14.7412 20.1295 14.6186 19.9225 14.26C19.7159 13.9014 19.8386 13.4426 20.1969 13.2355C20.7408 12.9217 21.2118 12.4946 21.5768 11.9836C21.9416 11.4728 22.1926 10.8896 22.3131 10.2736C22.4336 9.65744 22.4207 9.02204 22.275 8.41132C22.1293 7.80065 21.854 7.22807 21.4684 6.73261C21.0828 6.23722 20.5949 5.82943 20.0387 5.53828C19.4827 5.24736 18.8704 5.0787 18.2438 5.04414C17.6171 5.00965 16.9896 5.10992 16.4049 5.33808C15.8201 5.56641 15.2899 5.91824 14.8522 6.36836C14.6654 6.56015 14.3901 6.63819 14.1305 6.57246C13.871 6.50654 13.6663 6.30668 13.5934 6.04902C13.3473 5.17836 12.9104 4.37293 12.3151 3.6916C11.7197 3.01033 10.9799 2.46917 10.15 2.10859C9.3201 1.74807 8.41965 1.57592 7.51527 1.60566C6.61092 1.63547 5.72399 1.86614 4.91957 2.28046C4.11512 2.69486 3.41231 3.28308 2.86293 4.00214C2.31362 4.72117 1.93118 5.55365 1.74281 6.43867C1.55448 7.32369 1.56514 8.23992 1.77406 9.12031C1.98306 10.0007 2.38582 10.8245 2.9518 11.5305L2.36586 11.9992L1.7809 12.4689C1.07591 11.5896 0.575428 10.5636 0.315078 9.46699C0.0547816 8.37028 0.0414055 7.22866 0.276016 6.12617C0.510695 5.02379 0.987258 3.98661 1.67152 3.09101C2.35583 2.19547 3.23109 1.46356 4.23305 0.947457C5.23511 0.431328 6.33988 0.14374 7.46645 0.106637ZM2.9518 11.5305C3.21051 11.8535 3.15843 12.3251 2.83559 12.5842C2.51248 12.8432 2.04001 12.7919 1.7809 12.4689L2.9518 11.5305Z" fill="url(#paint0_linear_833_1958)"/>
</g>
<defs>
<linearGradient id="paint0_linear_833_1958" x1="12.002" y1="0.102539" x2="12.002" y2="23.8928" gradientUnits="userSpaceOnUse">
<stop stop-color="#FCCDFF"/>
<stop offset="1" stop-color="#8752FA"/>
</linearGradient>
<clipPath id="clip0_833_1958">
<rect width="24" height="24" fill="white"/>
</clipPath>
</defs>
</svg>
