<svg width="24" height="24" viewBox="0 0 24 24" fill="none" xmlns="http://www.w3.org/2000/svg">
<g clip-path="url(#clip0_833_2006)">
<path d="M15.4266 0.106934C20.1012 0.106934 23.8912 3.8963 23.8915 8.5708C23.8915 13.2455 20.1013 17.0356 15.4266 17.0356C13.5726 17.0355 11.859 16.4375 10.4647 15.4263L1.36119 23.6978C1.05462 23.9762 0.581109 23.9535 0.302592 23.647C0.0241787 23.3404 0.0469094 22.8669 0.353374 22.5884L9.32603 14.4341C7.86374 12.9126 6.96275 10.8476 6.96275 8.5708C6.96297 3.89648 10.7523 0.107227 15.4266 0.106934ZM15.4266 1.60693C11.5807 1.60723 8.46297 4.72491 8.46275 8.5708C8.46275 12.4169 11.5806 15.5354 15.4266 15.5356C19.2729 15.5356 22.3915 12.4171 22.3915 8.5708C22.3912 4.72472 19.2727 1.60693 15.4266 1.60693ZM14.3124 4.5874C14.7753 4.42201 15.2694 4.36198 15.7586 4.41064C16.2481 4.45937 16.721 4.61607 17.1424 4.86963C17.5637 5.12317 17.9239 5.46702 18.1961 5.87646L18.2352 5.94287C18.4121 6.27897 18.3094 6.70165 17.9862 6.9165C17.6414 7.14531 17.1754 7.05197 16.9461 6.70752L16.826 6.54541C16.6968 6.39115 16.5422 6.25905 16.369 6.15479C16.1379 6.01573 15.8786 5.92955 15.6102 5.90283C15.3419 5.87614 15.0711 5.90981 14.8172 6.00049C14.5634 6.09125 14.3321 6.23754 14.1415 6.42822C13.8487 6.72047 13.3737 6.72057 13.0809 6.42822C12.7881 6.13552 12.7885 5.66066 13.0809 5.36768C13.4286 5.0199 13.8493 4.7529 14.3124 4.5874Z" fill="url(#paint0_linear_833_2006)"/>
</g>
<defs>
<linearGradient id="paint0_linear_833_2006" x1="11.9997" y1="0.106934" x2="11.9997" y2="23.8926" gradientUnits="userSpaceOnUse">
<stop stop-color="#FCCDFF"/>
<stop offset="1" stop-color="#8752FA"/>
</linearGradient>
<clipPath id="clip0_833_2006">
<rect width="24" height="24" fill="white"/>
</clipPath>
</defs>
</svg>
