<svg width="24" height="24" viewBox="0 0 24 24" fill="none" xmlns="http://www.w3.org/2000/svg">
<path d="M8.98926 11.4756C11.0814 11.5793 13.0665 12.4561 14.5547 13.9443C16.1418 15.5316 17.0341 17.6841 17.0342 19.9287V21.6436C17.0338 22.0574 16.6981 22.3935 16.2842 22.3936H0.855469C0.441464 22.3936 0.105808 22.0575 0.105469 21.6436V19.9287C0.10558 17.6841 0.997851 15.5316 2.58496 13.9443C4.17222 12.3571 6.32462 11.465 8.56934 11.4648L8.98926 11.4756ZM18.3633 11.8154L18.4365 11.8389L18.7344 11.959C20.2096 12.5852 21.4794 13.618 22.3926 14.9404C23.3666 16.3511 23.8893 18.025 23.8916 19.7393V21.6426C23.8916 22.0567 23.5557 22.3924 23.1416 22.3926H20.5703C20.1561 22.3926 19.8203 22.0568 19.8203 21.6426C19.8205 21.2285 20.1562 20.8926 20.5703 20.8926H22.3916V19.7412L22.3857 19.4766C22.3339 18.159 21.9095 16.881 21.1582 15.793C20.4069 14.7049 19.3622 13.8551 18.1484 13.3398L17.9033 13.2412L17.833 13.21C17.4932 13.0396 17.3308 12.6363 17.4688 12.2734C17.6068 11.9106 17.9962 11.717 18.3633 11.8154ZM8.56934 12.9648C6.72244 12.965 4.95147 13.6989 3.64551 15.0049C2.3397 16.3108 1.60558 18.0819 1.60547 19.9287V20.8936H15.5342V19.9287C15.5341 18.082 14.7999 16.3108 13.4941 15.0049C12.2697 13.7804 10.6364 13.059 8.91504 12.9736L8.56934 12.9648ZM8.57031 0.321289C11.1146 0.32144 13.1768 2.38435 13.1768 4.92871C13.1766 7.47294 11.1145 9.53501 8.57031 9.53516C6.02595 9.53516 3.96304 7.47304 3.96289 4.92871C3.96289 2.38426 6.02586 0.321289 8.57031 0.321289ZM15.6562 0.327148C16.7949 0.383656 17.8756 0.860909 18.6855 1.6709C19.5495 2.53489 20.0352 3.70689 20.0352 4.92871C20.0351 6.1505 19.5495 7.32258 18.6855 8.18652C17.8216 9.05044 16.6496 9.53516 15.4277 9.53516C15.0135 9.53516 14.6777 9.19937 14.6777 8.78516C14.678 8.37113 15.0137 8.03516 15.4277 8.03516C16.2517 8.03516 17.0423 7.70859 17.625 7.12598C18.2076 6.54334 18.5351 5.75268 18.5352 4.92871C18.5352 4.10471 18.2076 3.31413 17.625 2.73145C17.0788 2.18522 16.3499 1.86335 15.582 1.8252L15.4277 1.82129L15.3506 1.81738C14.9726 1.77876 14.6777 1.45946 14.6777 1.07129C14.6777 0.657075 15.0135 0.321289 15.4277 0.321289L15.6562 0.327148ZM8.57031 1.82129C6.85428 1.82129 5.46289 3.21268 5.46289 4.92871C5.46304 6.64461 6.85438 8.03516 8.57031 8.03516C10.2861 8.03501 11.6766 6.64452 11.6768 4.92871C11.6768 3.21278 10.2862 1.82144 8.57031 1.82129Z" fill="url(#paint0_linear_833_1970)"/>
<defs>
<linearGradient id="paint0_linear_833_1970" x1="11.9985" y1="0.321289" x2="11.9985" y2="22.3936" gradientUnits="userSpaceOnUse">
<stop stop-color="#FCCDFF"/>
<stop offset="1" stop-color="#8752FA"/>
</linearGradient>
</defs>
</svg>
