<svg width="20" height="20" viewBox="0 0 20 20" fill="none" xmlns="http://www.w3.org/2000/svg">
<path fill-rule="evenodd" clip-rule="evenodd" d="M2.11866 8.94726C7.0245 6.80987 10.2958 5.40077 11.9326 4.71996C16.6061 2.77612 17.5772 2.43845 18.2101 2.4273C18.3493 2.42485 18.6606 2.45935 18.8622 2.62296C19.0325 2.7611 19.0793 2.94772 19.1017 3.07869C19.1242 3.20967 19.1521 3.50804 19.1299 3.74117C18.8766 6.40214 17.7808 12.8596 17.2233 15.84C16.9874 17.1011 16.5229 17.5239 16.0732 17.5653C15.096 17.6552 14.3539 16.9194 13.4074 16.299C11.9262 15.3281 11.0895 14.7237 9.65181 13.7763C7.99032 12.6814 9.06739 12.0796 10.0143 11.0961C10.2621 10.8388 14.5679 6.92228 14.6512 6.56699C14.6617 6.52256 14.6713 6.35693 14.5729 6.26947C14.4745 6.18201 14.3293 6.21192 14.2245 6.2357C14.076 6.26942 11.7099 7.83333 7.12618 10.9274C6.45457 11.3886 5.84624 11.6133 5.3012 11.6015C4.70034 11.5886 3.54452 11.2618 2.68528 10.9825C1.6314 10.6399 0.793795 10.4588 0.866732 9.87701C0.904722 9.57397 1.32203 9.26406 2.11866 8.94726Z" fill="white"/>
</svg>
